<?xml version="1.0" encoding="UTF-8"?>
<!DOCTYPE svg PUBLIC "-//W3C//DTD SVG 1.1//EN" "http://www.w3.org/Graphics/SVG/1.1/DTD/svg11.dtd">
<!-- Creator: CorelDRAW X7 -->
<svg xmlns="http://www.w3.org/2000/svg" xml:space="preserve" width="62.1453mm" height="61.4283mm" version="1.1" style="shape-rendering:geometricPrecision; text-rendering:geometricPrecision; image-rendering:optimizeQuality; fill-rule:evenodd; clip-rule:evenodd"
viewBox="0 0 299 295"
 xmlns:xlink="http://www.w3.org/1999/xlink">
 <defs>
  <style type="text/css">
   <![CDATA[
    .fil0 {fill:#89C54B}
   ]]>
  </style>
 </defs>
 <g id="Layer_x0020_1">
  <metadata id="CorelCorpID_0Corel-Layer"/>
  <g id="_2377245284528">
   <path class="fil0" d="M144 295c16,0 28,0 43,-4 19,-5 39,-14 54,-27l15 -13 9 -9c5,-7 10,-14 15,-22 1,-2 2,-4 3,-6 11,-22 16,-45 16,-70 0,-15 -3,-26 -6,-37 -1,-6 -3,-11 -6,-16l-7 -14c-2,0 -19,11 -21,12 1,2 2,3 3,5 3,6 5,12 7,18 9,25 6,53 -2,77l-4 11c-5,10 -14,24 -22,32l-21 17c-6,5 -12,8 -19,11 -24,11 -53,14 -79,8 -8,-2 -15,-4 -23,-7 -14,-6 -27,-15 -37,-26 -12,-11 -19,-22 -26,-36 -4,-7 -6,-15 -8,-23 -7,-28 -3,-59 10,-84 0,-1 0,-1 1,-2l7 -12c2,-3 4,-6 7,-9 11,-13 22,-22 37,-30l11 -5c2,-1 3,-2 5,-2 11,-5 27,-8 39,-8 15,0 30,1 44,6 6,2 12,5 18,8 3,1 7,5 10,6 1,-2 9,-13 10,-15 2,-1 3,-3 4,-5 -1,-1 -3,-1 -4,-2l-13 -8c-3,-1 -5,-3 -9,-4 -10,-4 -20,-7 -31,-8 -36,-5 -68,0 -98,17 -8,4 -15,9 -22,15 -1,0 -1,1 -2,2 -4,3 -8,7 -12,11 -1,1 -1,1 -2,2l-9 10c-14,19 -24,46 -27,69 -1,6 -1,12 -2,17 0,1 0,1 0,2l0 0c0,4 1,13 1,16 1,5 1,10 2,15 3,11 6,19 9,28 7,15 16,30 28,42 0,1 1,1 2,2l14 13c5,4 11,8 17,11 12,8 24,13 39,17 10,2 21,4 32,4z"/>
   <path class="fil0" d="M146 142l-36 -39c-6,-5 -7,-6 -14,-11 -7,-5 -25,-15 -34,-6 -8,8 -3,22 3,29 4,6 11,10 16,16 19,22 27,38 42,63 2,3 4,6 7,9 3,5 11,14 16,16 8,3 13,-10 16,-15 4,-7 9,-19 14,-27l3 -5c8,-17 24,-37 36,-52l14 -18c11,-12 23,-27 31,-42 2,-2 11,-19 11,-21 0,-9 -50,31 -56,36 -1,2 -3,3 -4,4 -9,6 -17,15 -25,21l-20 19c-2,1 -3,2 -4,3l-7 8c-2,2 -9,10 -9,12z"/>
  </g>
 </g>
</svg>
